# xmcd
#
# Track frame offsets:
#	150
#	18608
#	31615
#	44322
#	57189
#	68422
#	81935
#	98365
#	115885
#	126017
#	139082
#	154817
#	169095
#	182876
#
# Disc length: 2613 seconds
#
# Revision: 0
# Processed by: cddbd v1.5.2PL0 Copyright (c) Steve Scherf et al.
# Submitted via: EasyCDDAExtractor 2010.4.0.0
#
DISCID=ac0a330e
DTITLE=Goldman Thibodeaux and Calvin Carrière - Les Misères dans le Coeur
DYEAR=2000
DGENRE=Creole
TTITLE0=Baby please don't go
TTITLE1=Goldman's hard times
TTITLE2=Jolie catin
TTITLE3=Chère toutoute
TTITLE4=Madame Faielle
TTITLE5=Valse à Lawtell
TTITLE6=Eunice two step
TTITLE7=Les barres de la prison
TTITLE8=Blues à Bébé
TTITLE9=Valse de mèches
TTITLE10=Petite ou grosse
TTITLE11=Love bridge waltz
TTITLE12=Goldman Thibodeaux special
TTITLE13=Jongle à moi
EXTD=
EXTT0=
EXTT1=
EXTT2=
EXTT3=
EXTT4=
EXTT5=
EXTT6=
EXTT7=
EXTT8=
EXTT9=
EXTT10=
EXTT11=
EXTT12=
EXTT13=
PLAYORDER=
